<svg id="Layer_1" xmlns="http://www.w3.org/2000/svg" viewBox="0 0 576.1 239.3"><style>.st0{fill:#e13838}</style><path d="M8.9 2.3h23.3v40.9h-6.7V8.6h-10v34.6H8.9zM41 12.5h12.2c1.2 0 2.3.4 3.2 1.3.9.9 1.3 2 1.3 3.2v9.4c0 1.3-.4 2.4-1.3 3.2-.9.9-1.9 1.3-3.2 1.3h-10v4.8c0 .8.4 1.1 1.1 1.1h13.3v6.3H41c-1.2 0-2.3-.4-3.2-1.3-.9-.9-1.3-2-1.3-3.2V17.1c0-1.3.4-2.3 1.3-3.2.9-1 2-1.4 3.2-1.4m8.9 6.3h-5.5c-.7 0-1.1.4-1.1 1.1v4.8H50c.7 0 1.1-.4 1.1-1.1V20c-.1-.8-.5-1.2-1.2-1.2M62.1 12.5h5.8l.6 2c.2-.6.6-1.1 1.1-1.5.6-.4 1.2-.6 1.8-.6h7.2c1.2 0 2.3.4 3.2 1.3.9.9 1.3 2 1.3 3.2v21.6c0 1.3-.4 2.4-1.3 3.2-.9.9-1.9 1.3-3.2 1.3h-7c-.7 0-1.3-.2-1.9-.6-.6-.4-1-1-1.1-1.6v12.5h-6.7V12.5zm13.3 6.3h-5.5c-.7 0-1.1.4-1.1 1.1v15.9c0 .8.4 1.1 1.1 1.1h5.5c.7 0 1.1-.4 1.1-1.1V19.9c0-.7-.3-1.1-1.1-1.1M87.6 12.5h6.7v24.4h6.6V12.5h6.7v24.4h6.6V12.5h6.7v30.7H87.6zM126.4 12.5H142c1.2 0 2.3.4 3.2 1.3.9.9 1.3 2 1.3 3.2v26.2h-5.8l-.6-2c-.2.6-.6 1.1-1.1 1.5-.6.4-1.2.6-1.8.6H130c-1.2 0-2.3-.4-3.2-1.3-.9-.9-1.3-2-1.3-3.2v-9.4c0-1.3.4-2.4 1.3-3.2.9-.9 1.9-1.3 3.2-1.3h10v-4.8c0-.8-.4-1.1-1.1-1.1h-12.2v-6.5zM139.8 31h-6.7c-.7 0-1.1.4-1.1 1.1v3.6c0 .8.4 1.1 1.1 1.1h5.5c.7 0 1.1-.4 1.1-1.1V31zM155.3 12.5h16.6v30.7h-6.7V31h-2.5l-5.5 12.2h-7.5l5.5-12.2c-1.2 0-2.3-.4-3.2-1.3-.9-.9-1.3-2-1.3-3.2v-9.4c0-1.2.4-2.3 1.3-3.2 1-.9 2.1-1.4 3.3-1.4m10 6.3h-6.7c-.7 0-1.1.4-1.1 1.1v3.6c0 .8.4 1.1 1.1 1.1h6.7v-5.8zM206.3 0h6.7v1.7c0 1.9-.7 3.5-2 4.8-1.3 1.3-2.9 2-4.7 2h-5.5c-1 0-1.8.3-2.4 1s-.9 1.5-.9 2.5v1.7c.6-.8 1.3-1.1 2.2-1.1h8.9c1.2 0 2.3.4 3.2 1.3.9.9 1.3 2 1.3 3.2v21.6c0 1.3-.4 2.4-1.3 3.2-.9.9-1.9 1.3-3.2 1.3h-12.2c-1.2 0-2.3-.4-3.1-1.3-.9-.9-1.3-2-1.3-3.2V11.4c0-2.5.9-4.7 2.6-6.5 1.7-1.8 3.8-2.6 6.3-2.6h3.3c.6 0 1.1-.2 1.6-.7.3-.4.5-1 .5-1.6m-1.1 18.8h-5.5c-.7 0-1.1.4-1.1 1.1v15.9c0 .8.4 1.1 1.1 1.1h5.5c.7 0 1.1-.4 1.1-1.1V19.9c0-.7-.4-1.1-1.1-1.1M221.8 12.5H234c1.2 0 2.3.4 3.2 1.3.9.9 1.3 2 1.3 3.2v9.4c0 1.3-.4 2.4-1.3 3.2-.9.9-1.9 1.3-3.2 1.3h-10v4.8c0 .8.4 1.1 1.1 1.1h13.3v6.3h-16.6c-1.2 0-2.3-.4-3.1-1.3-.9-.9-1.3-2-1.3-3.2V17.1c0-1.3.4-2.3 1.3-3.2.8-1 1.9-1.4 3.1-1.4m8.9 6.3h-5.5c-.7 0-1.1.4-1.1 1.1v4.8h6.7c.7 0 1.1-.4 1.1-1.1V20c-.1-.8-.5-1.2-1.2-1.2M249.1 12.5H264v30.7h-6.7V18.8h-2.9l-5.8 24.4h-6.8zM269.5 12.5H285c1.2 0 2.3.4 3.2 1.3.9.9 1.3 2 1.3 3.2v26.2h-5.8l-.6-2c-.2.6-.6 1.1-1.1 1.5-.6.4-1.2.6-1.8.6H273c-1.2 0-2.3-.4-3.2-1.3-.9-.9-1.3-2-1.3-3.2v-9.4c0-1.3.4-2.4 1.3-3.2.9-.9 1.9-1.3 3.2-1.3h10v-4.8c0-.8-.4-1.1-1.1-1.1h-12.2v-6.5zM282.8 31h-6.7c-.7 0-1.1.4-1.1 1.1v3.6c0 .8.4 1.1 1.1 1.1h5.5c.7 0 1.1-.4 1.1-1.1V31zM293.9 12.5h5.8l.6 2c.2-.6.6-1.1 1.1-1.5.6-.4 1.2-.6 1.8-.6h7.2c1.2 0 2.3.4 3.2 1.3.9.9 1.3 2 1.3 3.2v21.6c0 1.3-.4 2.4-1.3 3.2-.9.9-1.9 1.3-3.2 1.3h-7c-.7 0-1.3-.2-1.9-.6-.6-.4-1-1-1.1-1.6v12.5h-6.7V12.5zm13.3 6.3h-5.5c-.7 0-1.1.4-1.1 1.1v15.9c0 .8.4 1.1 1.1 1.1h5.5c.7 0 1.1-.4 1.1-1.1V19.9c.1-.7-.3-1.1-1.1-1.1M319.4 12.5h6.7v23.3c0 .8.4 1.1 1.1 1.1h5.5c.7 0 1.1-.4 1.1-1.1V12.5h6.7v36.4c0 1.3-.4 2.3-1.3 3.2-.9.9-1.9 1.3-3.1 1.3h-16.6v-6.2h13.3c.7 0 1.1-.4 1.1-1.1V41c-.1.7-.5 1.2-1.1 1.6-.6.4-1.2.6-1.9.6h-7c-1.2 0-2.3-.4-3.1-1.3-.9-.9-1.3-2-1.3-3.2V12.5zM349.4 12.5h13.3v6.3h-10c-.7 0-1.1.4-1.1 1.1v15.9c0 .8.4 1.1 1.1 1.1h11.1v6.3h-14.4c-1.2 0-2.3-.4-3.2-1.3-.9-.9-1.3-2-1.3-3.2V17.1c0-1.3.4-2.3 1.3-3.2.9-1 1.9-1.4 3.2-1.4M368.2 12.5h6.7v12.2h1.9l5.7-12.2h7.4l-7.1 15.3v.1l7.1 15.3h-7.4L376.8 31h-1.9v12.2h-6.7zM394.3 12.5h15.5c1.2 0 2.3.4 3.2 1.3.9.9 1.3 2 1.3 3.2v26.2h-5.8l-.6-2c-.2.6-.6 1.1-1.1 1.5-.6.4-1.2.6-1.8.6h-7.2c-1.2 0-2.3-.4-3.2-1.3-.9-.9-1.3-2-1.3-3.2v-9.4c0-1.3.4-2.4 1.3-3.2.9-.9 1.9-1.3 3.2-1.3h10v-4.8c0-.8-.4-1.1-1.1-1.1h-12.2v-6.5zM407.6 31h-6.7c-.7 0-1.1.4-1.1 1.1v3.6c0 .8.4 1.1 1.1 1.1h5.5c.7 0 1.1-.4 1.1-1.1V31zM423.1 12.5h16.6v30.7H433V31h-2.5L425 43.2h-7.5L423 31c-1.2 0-2.3-.4-3.2-1.3-.9-.9-1.3-2-1.3-3.2v-9.4c0-1.2.4-2.3 1.3-3.2 1.1-.9 2.1-1.4 3.3-1.4m10 6.3h-6.7c-.7 0-1.1.4-1.1 1.1v3.6c0 .8.4 1.1 1.1 1.1h6.7v-5.8zM13.3 68.9h12.2c1.2 0 2.3.4 3.2 1.3.9.9 1.3 2 1.3 3.2V95c0 1.3-.4 2.4-1.3 3.2-.9.9-1.9 1.3-3.2 1.3H13.3c-1.2 0-2.3-.4-3.2-1.3-.9-.9-1.3-2-1.3-3.2V73.5c0-1.3.4-2.3 1.3-3.2.9-.9 2-1.4 3.2-1.4m8.9 6.3h-5.5c-.7 0-1.1.4-1.1 1.1v15.9c0 .8.4 1.1 1.1 1.1h5.5c.7 0 1.1-.4 1.1-1.1V76.3c0-.7-.4-1.1-1.1-1.1M34.4 68.9H41v12.2h8.9V68.9h6.7v30.7h-6.7V87.4H41v12.2h-6.6zM67.2 68.9h14.9v30.7h-6.7V75.2h-2.9l-5.8 24.4h-6.8zM87.6 68.9h15.5c1.2 0 2.3.4 3.2 1.3.9.9 1.3 2 1.3 3.2v26.2h-5.8l-.6-2c-.2.6-.6 1.1-1.1 1.5-.6.4-1.2.6-1.8.6h-7.2c-1.2 0-2.3-.4-3.2-1.3-.9-.9-1.3-2-1.3-3.2v-9.4c0-1.3.4-2.4 1.3-3.2.9-.9 1.9-1.3 3.2-1.3h10v-4.8c0-.8-.4-1.1-1.1-1.1H87.6v-6.5zm13.3 18.5h-6.7c-.7 0-1.1.4-1.1 1.1v3.6c0 .8.4 1.1 1.1 1.1h5.5c.7 0 1.1-.4 1.1-1.1v-4.7zM112 68.9h6.7V88l7.5-19.1h8.1v30.7h-6.7v-19l-7.5 19H112V68.9zm4.5-10.2h3.5c0 .8.3 1.5.9 2 .6.5 1.4.8 2.3.8.9 0 1.6-.3 2.3-.8.6-.5.9-1.2.9-2h3.5c0 1.9-.7 3.5-2 4.8-1.3 1.3-2.9 2-4.7 2-1.8 0-3.4-.7-4.7-2-1.4-1.3-2-2.9-2-4.8M138.6 68.9h6.7v12.2h8.9V68.9h6.6v30.7h-6.6V87.4h-8.9v12.2h-6.7zM180.8 68.9h6.6v24.4h6.7V68.9h6.7v24.4h6.6V68.9h6.7v30.7h-33.3zM218.5 68.9h6.7v12.2h1.9l5.6-12.2h7.4L233 84.3l7.1 15.3h-7.4l-5.6-12.2h-1.9v12.2h-6.7zM247.9 68.9h12.2c1.2 0 2.3.4 3.2 1.3.9.9 1.3 2 1.3 3.2V95c0 1.3-.4 2.4-1.3 3.2-.9.9-1.9 1.3-3.2 1.3h-12.2c-1.2 0-2.3-.4-3.1-1.3-.9-.9-1.3-2-1.3-3.2V73.5c0-1.3.4-2.3 1.3-3.2.8-.9 1.8-1.4 3.1-1.4m8.8 6.3h-5.5c-.7 0-1.1.4-1.1 1.1v15.9c0 .8.4 1.1 1.1 1.1h5.5c.7 0 1.1-.4 1.1-1.1V76.3c.1-.7-.3-1.1-1.1-1.1M275.1 68.9H290v30.7h-6.6V75.2h-3l-5.7 24.4h-6.9zM295.6 68.9h15.5c1.2 0 2.3.4 3.2 1.3.9.9 1.3 2 1.3 3.2v26.2h-5.8l-.6-2c-.2.6-.6 1.1-1.1 1.5-.6.4-1.2.6-1.8.6h-7.2c-1.2 0-2.3-.4-3.2-1.3-.9-.9-1.3-2-1.3-3.2v-9.4c0-1.3.4-2.4 1.3-3.2.9-.9 1.9-1.3 3.2-1.3h10v-4.8c0-.8-.4-1.1-1.1-1.1h-12.2v-6.5zm13.3 18.5h-6.7c-.7 0-1.1.4-1.1 1.1v3.6c0 .8.4 1.1 1.1 1.1h5.5c.7 0 1.1-.4 1.1-1.1v-4.7z"/><path class="st0" d="M576 6l-5.2-.2c-3.5-.1-6.8-.3-10.2-.4-3.8.1-7.7.1-11.5.2 3.4.1 6.8.1 10 .2h1.2c.4 0 .7.1 1 .1.7.1 1.4.1 2 .2l3.9.3c1.3.1 2.5.2 3.8.3.6.1 1.2.1 1.8.2l.9.1c0 .1-.2.2-.3.4l-.4.2c-2 1.9-3.8 3.7-5.6 5.4l3.4-3.4 1.7-1.7.4-.4.2-.2.1-.1h-.1L572 7c-3.1-.2-6.2-.3-9.2-.5-.8 0-1.5-.1-2.3-.1-.4 0-.7-.1-1.1 0H543.8c-8.1 0-14.7.1-18.3.2-40.6.7-17.6 1.6-2 2.8 11.2.5-4 1.3 13.6 1.8-12.7 0-19 0-31.8-.1-1.5.5 39.1-.2 30.3.6-12.2-.2-25.9.1-38.6.1 4.4.7 44 .3 42 .9-6.9.2-35.7-.9-38.1-.1-.5.2 12.2.2 18.6.2-39.1.2-60.6 1-24.9 1.9-12.4 0-29.9-.4-43-.3h.1c6.5.1 17.8.2 23.8.2h-22.3c1.2.1 2.5.2 3.9.3 5.5.1 11.1.2 16.9.2h-14.8c3.7.3 8 .5 12.6.8 17.6.5 34.5 1.3 44 1.3 9.4 0 18.8.1 28.3.1l1.1.1H545.5l-.1.1-.5.4-.4.3-.2.1h-.1l-.2.1-1.4 1.1c-3.7 2.8-7.5 5.6-11.4 8.2-7.7 5.3-15.8 10.1-24.1 14.5C474.2 60 437.6 71 400.4 75.1c-.1.3 3.9.2-2.3 1-2.2.3-4.4.5-6.5.7-2.1.2-4.2.3-6.3.5l.4 13.8c14.4.1 27.6.7 43.1.5.5-.2 1-.3 1.4-.5 15.5.2 31.7.5 48.2.7h7.4c0 .1-.1.2-.1.3l-.1.2-1.4 1.3c-.6.6-1.3 1.2-1.9 1.8-10.6 9.3-23.2 16.6-36.4 22.7.8-.1 1.2-.1-1.5 1.1-1.4.6-2.8 1.2-4.4 1.9-1.5.6-3.1 1.2-4.8 1.9-3.3 1.3-6.9 2.5-10.7 3.8-1.9.6-3.8 1.2-5.8 1.8l-3 .9c-1 .3-2 .5-3.1.8-2.1.6-4.1 1.1-6.2 1.7-2.1.5-4.2 1-6.4 1.5-1.3.3-2.5.6-3.8.9-1.3.3-2.5.6-3.8.8-1.9.5-2.4.8-2.7.9-2 .4-3.8.8-5.7 1.1s-3.7.6-5.5.9c-1.8.3-3.5.6-5.2.9-1.7.2-3.4.5-5 .7l-4.8.7-2.4.4-2.4.3c-3.2.4-6.4.8-9.7 1.2-3.2.4-6.5.7-9.8 1-1.6.2-3.3.3-4.9.5-1.7.1-3.3.2-5 .4-1.8.1-3.5.3-5.3.4-11.4 0-23.5.1-36.1.1V158.7c15-.1 30.8-.6 47-1.8.5 0 1-.1 1.5-.1 14.8-.2 29.9-.4 45.2-.5l24.3-.3H409.6c1 0 2 0 3-.1h2.3c.2 0 .7-.1.4.2-.4.9-.9 1.7-1.5 2.5s-1.2 1.6-1.9 2.3c-.3.4-.7.8-1.1 1.1l-1.7 1.6c-1.5 1.3-3 2.7-4.6 3.9l-2.4 1.9c-.8.6-1.6 1.2-2.5 1.8-1.7 1.2-3.3 2.4-5.1 3.5-1.7 1.1-3.5 2.2-5.2 3.3-3.6 2-7.2 4.2-11 6-2.2 1.2-4.5 2.4-6.8 3.4-2.3 1.1-4.6 2.2-6.9 3.2-4.7 1.9-9.3 4-14 5.7-2.4.9-4.7 1.8-7.1 2.6-2.4.8-4.8 1.6-7.1 2.4-4.7 1.6-9.5 2.9-14.2 4.3-28.1 7.9-65 13.7-93.3 16.7 1.1.3-2.3 1.1-8 2-2.8.5-6.2 1-9.8 1.5-1.8.3-3.6.6-5.5.8-1.9.2-3.8.5-5.6.7-7.5.9-14.7 1.8-19.2 2.4-4.5.6-6.2 1.1-2.7 1.3-19 1.2-47.7 1.9-49.1 2.5-2.2.8-7 1.6-17.5 2.5-2.6.2-5.6.4-9.1.7-3.4.2-7.2.3-11.5.5-4.3.1-9 .2-14.3.4-2.6 0-5.4.1-8.3.1h-9.1c-19.9 0-50.3-2-57.3-1.9-11 0 25.7 2 14.6 2.1 36.9 1.6 73.5 2.3 110 1.5 4.6 0 9.1-.3 13.7-.4 4.6-.2 9.1-.3 13.7-.5 4.6-.1 9.1-.4 13.6-.7l13.6-.8c4.5-.3 9.1-.7 13.6-1l13.6-1.1 13.6-1.4 6.8-.7c2.3-.2 4.5-.6 6.8-.8l13.6-1.7c4.5-.6 9-1.4 13.6-2l6.8-1c2.3-.4 4.5-.8 6.8-1.2 4.5-.8 9-1.6 13.5-2.5 18-3.6 35.9-8 53.6-13.7l3.3-1c1.1-.4 2.2-.8 3.3-1.1l6.6-2.3c2.2-.7 4.4-1.6 6.6-2.5l6.5-2.6c8.6-3.7 17.2-7.8 25.5-12.6l6.1-3.8c2-1.3 4-2.7 6-4.1 1.9-1.5 3.9-2.9 5.8-4.5l2.8-2.4c.5-.4.9-.8 1.4-1.2l1.9-1.8c1.7-1.6 3.2-3.2 4.6-4.9l2.1-2.5c.3-.4.7-.8 1-1.2l.8-1.2c2.4-3.3 3.7-6.3 5.1-9.3l1.1-2.3.6-1.2c.5-.6-.2-.5-.6-.6l-4.6-1.1-4.6-1.1-.6-.1-.1-.5h-10.3c6.9-1.9 13.7-3.9 20.5-6.4 16.1-5.7 31.7-13 45.6-22.5 3.5-2.4 6.8-4.9 10.1-7.6 1.6-1.4 3.2-2.7 4.7-4.2l1.2-1.2c.6-.6 1.2-1.3 1.9-1.9l1.8-2c.6-.7 1.3-1.3 1.8-2 1.1-1.3 2.2-2.7 3.2-4l1.3-2c.4-.6.9-1.3 1.2-1.9 1.4-2.5 2.7-4.9 4-7.4l.5-1 .3-.5.1-.3s.1-.1 0-.1h-.1l-2-.3c-1.3-.2-2.6-.4-3.9-.7-1.3-.2-2.6-.4-3.9-.7l-1-.2c-.2 0-.3-.1-.5-.1H459.9c5-1.6 10-3.3 14.8-5.1 12.2-4.5 23.9-9.8 34.6-15.4 10.7-5.7 20.4-11.7 28.9-17.6 3.9-2.7 7.7-5.6 11.4-8.6l2.9-2.4c1.6-1.2 3.1-2.6 4.6-3.8l2.2-1.9 2.1-1.9 2.1-1.9 1.9-1.9c1.3-1.3 2.5-2.5 3.6-3.7l3.5-3.6 1.7-1.8.9-.9.4-.5.2-.2c.3.3.5.2.3.2"/><path d="M8.4 125.6H25c1.3 0 2.3.4 3.2 1.3.9.9 1.3 1.9 1.3 3.2v7.3c0 .9-.3 1.6-.9 2.2-.6.6-1.4 1-2.4 1.1 1 .1 1.8.5 2.5 1.1.7.6 1.1 1.4 1.1 2.2v7.3c0 1.3-.4 2.3-1.3 3.2-.9.9-1.9 1.3-3.2 1.3H8.4v-30.2zm13.2 6.2h-6.5v5.8h6.5c.7 0 1.1-.4 1.1-1.1V133c.1-.8-.3-1.2-1.1-1.2m.3 12.1h-6.7v5.8h6.7c.7 0 1.1-.4 1.1-1.1V145c0-.7-.3-1.1-1.1-1.1M35.4 125.6h15.7c1.3 0 2.3.4 3.2 1.3.9.9 1.3 1.9 1.3 3.2v25.8h-5.8l-.6-2c-.2.6-.6 1-1.1 1.4-.6.4-1.2.6-1.9.6h-7.3c-1.3 0-2.3-.4-3.2-1.3-.9-.9-1.3-1.9-1.3-3.2v-9.3c0-1.3.4-2.3 1.3-3.2.9-.9 1.9-1.3 3.2-1.3H49V133c0-.7-.4-1.1-1.1-1.1H35.4v-6.3zm13.5 18.3h-6.7c-.7 0-1.1.4-1.1 1.1v3.6c0 .7.4 1.1 1.1 1.1h5.6c.7 0 1.1-.4 1.1-1.1v-4.7zM75.8 115.5h6.7V134c0 .7.4 1.1 1.1 1.1h6.7c.7 0 1.1-.4 1.1-1.1v-18.5h6.7v35.9c0 1.3-.4 2.3-1.3 3.2-.9.9-1.9 1.3-3.2 1.3h-18v-6.2h14.6c.7 0 1.1-.4 1.1-1.1v-9.5c-.1.7-.5 1.2-1.1 1.6-.6.4-1.3.6-2 .6H80c-1.3 0-2.3-.4-3.2-1.3-.9-.9-1.3-1.9-1.3-3.2v-21.3zm4.5-10.1h3.5c0 .8.3 1.4.9 2 .6.5 1.4.8 2.3.8.9 0 1.7-.3 2.3-.8.6-.5.9-1.2.9-2h3.5c0 1.9-.7 3.4-2 4.8-1.3 1.3-2.9 2-4.8 2s-3.4-.7-4.8-2c-1.2-1.3-1.8-2.9-1.8-4.8M102.7 125.6h6.8v12.1h1.9l5.8-12.1h7.4l-7.2 15.2 7.2 15.2h-7.4l-5.8-12.1h-1.9V156h-6.8zM128 125.6h5.8l.6 2c.2-.6.6-1 1.1-1.4.6-.4 1.2-.6 1.9-.6h7.3c1.3 0 2.3.4 3.2 1.3.9.9 1.3 1.9 1.3 3.2v21.3c0 1.3-.4 2.3-1.3 3.2-.9.9-1.9 1.3-3.2 1.3h-7.1c-.7 0-1.3-.2-2-.6-.6-.4-1-1-1.1-1.6V166H128v-40.4zm13.4 6.2h-5.6c-.7 0-1.1.4-1.1 1.1v15.7c0 .7.4 1.1 1.1 1.1h5.6c.7 0 1.1-.4 1.1-1.1V133c.1-.8-.3-1.2-1.1-1.2M154.9 125.6h15.7c1.3 0 2.3.4 3.2 1.3.9.9 1.3 1.9 1.3 3.2v25.8h-5.8l-.6-2c-.2.6-.6 1-1.1 1.4s-1.2.6-1.9.6h-7.3c-1.3 0-2.3-.4-3.2-1.3-.9-.9-1.3-1.9-1.3-3.2v-9.3c0-1.3.4-2.3 1.3-3.2.9-.9 1.9-1.3 3.2-1.3h10.1V133c0-.7-.4-1.1-1.1-1.1h-12.3v-6.3zm13.5 18.3h-6.7c-.7 0-1.1.4-1.1 1.1v3.6c0 .7.4 1.1 1.1 1.1h5.6c.7 0 1.1-.4 1.1-1.1v-4.7zM181.9 115.5h6.7v6.7h-6.7v-6.7zm0 10.1h6.7V156h-6.7v-30.4zM195.3 125.6h6.8v12.1h8.9v-12.1h6.8V156H211v-12.1h-8.9V156h-6.8zM226.8 125.6h12.3c1.3 0 2.3.4 3.2 1.3.9.9 1.3 1.9 1.3 3.2v9.3c0 1.3-.4 2.3-1.3 3.2-.9.9-1.9 1.3-3.2 1.3H229v4.7c0 .7.4 1.1 1.1 1.1h13.5v6.2h-16.8c-1.3 0-2.3-.4-3.2-1.3-.9-.9-1.3-1.9-1.3-3.2v-21.3c0-1.3.4-2.3 1.3-3.2.8-.8 1.9-1.3 3.2-1.3m8.9 6.2h-5.6c-.7 0-1.1.4-1.1 1.1v4.7h6.7c.7 0 1.1-.4 1.1-1.1V133c.1-.8-.3-1.2-1.1-1.2"/></svg>