<svg xmlns="http://www.w3.org/2000/svg" viewBox="0 0 100 100"><path d="M33.975 95h32.05c5.565 0 10.08-4.279 10.08-9.569V14.576C76.105 9.291 71.592 5 66.035 5h-32.05c-5.564 0-10.08 4.291-10.08 9.576V85.43c0 5.288 4.513 9.57 10.08 9.57m16.03-3.257a4.503 4.503 0 0 1-4.506-4.498 4.498 4.498 0 0 1 4.506-4.502 4.491 4.491 0 0 1 4.494 4.502 4.497 4.497 0 0 1-4.494 4.498m-6.868-80.911h13.727c.556 0 1.01.383 1.01.852 0 .471-.452.854-1.01.854H43.147c-.55 0-1.01-.383-1.01-.854 0-.469.454-.852 1.01-.852M27.858 21.63c0-.794.675-1.438 1.508-1.438h41.29c.835 0 1.507.641 1.507 1.438v56.49c0 .791-.672 1.433-1.507 1.433h-41.29c-.833 0-1.508-.642-1.508-1.433V21.63"/></svg>