<?xml version="1.0" encoding="utf-8"?>
<!-- Generator: Adobe Illustrator 21.1.0, SVG Export Plug-In . SVG Version: 6.00 Build 0)  -->
<svg version="1.1" id="Layer_1" xmlns="http://www.w3.org/2000/svg" xmlns:xlink="http://www.w3.org/1999/xlink" x="0px" y="0px"
	 viewBox="0 0 576.1 239.3" style="enable-background:new 0 0 576.1 239.3;" xml:space="preserve">
<style type="text/css">
	.st0{fill:#E13838;}
</style>
<g>
	<polygon points="8.9,2.3 32.2,2.3 32.2,43.2 25.5,43.2 25.5,8.6 15.5,8.6 15.5,43.2 8.9,43.2 	"/>
	<path d="M41,12.5h12.2c1.2,0,2.3,0.4,3.2,1.3c0.9,0.9,1.3,2,1.3,3.2v9.4c0,1.3-0.4,2.4-1.3,3.2c-0.9,0.9-1.9,1.3-3.2,1.3h-10v4.8
		c0,0.8,0.4,1.1,1.1,1.1h13.3v6.3H41c-1.2,0-2.3-0.4-3.2-1.3c-0.9-0.9-1.3-2-1.3-3.2V17.1c0-1.3,0.4-2.3,1.3-3.2
		C38.7,12.9,39.8,12.5,41,12.5 M49.9,18.8h-5.5c-0.7,0-1.1,0.4-1.1,1.1v4.8h6.7c0.7,0,1.1-0.4,1.1-1.1v-3.6
		C51,19.2,50.6,18.8,49.9,18.8"/>
	<path d="M62.1,12.5h5.8l0.6,2h0c0.2-0.6,0.6-1.1,1.1-1.5c0.6-0.4,1.2-0.6,1.8-0.6h7.2c1.2,0,2.3,0.4,3.2,1.3c0.9,0.9,1.3,2,1.3,3.2
		v21.6c0,1.3-0.4,2.4-1.3,3.2c-0.9,0.9-1.9,1.3-3.2,1.3h-7c-0.7,0-1.3-0.2-1.9-0.6c-0.6-0.4-1-1-1.1-1.6v12.5h-6.7V12.5z M75.4,18.8
		h-5.5c-0.7,0-1.1,0.4-1.1,1.1v15.9c0,0.8,0.4,1.1,1.1,1.1h5.5c0.7,0,1.1-0.4,1.1-1.1V19.9C76.5,19.2,76.2,18.8,75.4,18.8"/>
	<polygon points="87.6,12.5 94.3,12.5 94.3,36.9 100.9,36.9 100.9,12.5 107.6,12.5 107.6,36.9 114.2,36.9 114.2,12.5 120.9,12.5 
		120.9,43.2 87.6,43.2 	"/>
	<path d="M126.4,12.5H142c1.2,0,2.3,0.4,3.2,1.3c0.9,0.9,1.3,2,1.3,3.2v26.2h-5.8l-0.6-2h0c-0.2,0.6-0.6,1.1-1.1,1.5
		c-0.6,0.4-1.2,0.6-1.8,0.6h-7.2c-1.2,0-2.3-0.4-3.2-1.3c-0.9-0.9-1.3-2-1.3-3.2v-9.4c0-1.3,0.4-2.4,1.3-3.2
		c0.9-0.9,1.9-1.3,3.2-1.3h10v-4.8c0-0.8-0.4-1.1-1.1-1.1h-12.2V12.5z M139.8,31h-6.7c-0.7,0-1.1,0.4-1.1,1.1v3.6
		c0,0.8,0.4,1.1,1.1,1.1h5.5c0.7,0,1.1-0.4,1.1-1.1V31z"/>
	<path d="M155.3,12.5h16.6v30.7h-6.7V31h-2.5l-5.5,12.2h-7.5l5.5-12.2c-1.2,0-2.3-0.4-3.2-1.3c-0.9-0.9-1.3-2-1.3-3.2v-9.4
		c0-1.2,0.4-2.3,1.3-3.2C153,13,154.1,12.5,155.3,12.5 M165.3,18.8h-6.7c-0.7,0-1.1,0.4-1.1,1.1v3.6c0,0.8,0.4,1.1,1.1,1.1h6.7V18.8
		z"/>
	<path d="M206.3,0h6.7v1.7c0,1.9-0.7,3.5-2,4.8c-1.3,1.3-2.9,2-4.7,2h-5.5c-1,0-1.8,0.3-2.4,1s-0.9,1.5-0.9,2.5v1.7
		c0.6-0.8,1.3-1.1,2.2-1.1h8.9c1.2,0,2.3,0.4,3.2,1.3c0.9,0.9,1.3,2,1.3,3.2v21.6c0,1.3-0.4,2.4-1.3,3.2c-0.9,0.9-1.9,1.3-3.2,1.3
		h-12.2c-1.2,0-2.3-0.4-3.1-1.3c-0.9-0.9-1.3-2-1.3-3.2V11.4c0-2.5,0.9-4.7,2.6-6.5c1.7-1.8,3.8-2.6,6.3-2.6h3.3
		c0.6,0,1.1-0.2,1.6-0.7C206.1,1.2,206.3,0.6,206.3,0 M205.2,18.8h-5.5c-0.7,0-1.1,0.4-1.1,1.1v15.9c0,0.8,0.4,1.1,1.1,1.1h5.5
		c0.7,0,1.1-0.4,1.1-1.1V19.9C206.3,19.2,205.9,18.8,205.2,18.8"/>
	<path d="M221.8,12.5H234c1.2,0,2.3,0.4,3.2,1.3c0.9,0.9,1.3,2,1.3,3.2v9.4c0,1.3-0.4,2.4-1.3,3.2c-0.9,0.9-1.9,1.3-3.2,1.3h-10v4.8
		c0,0.8,0.4,1.1,1.1,1.1h13.3v6.3h-16.6c-1.2,0-2.3-0.4-3.1-1.3c-0.9-0.9-1.3-2-1.3-3.2V17.1c0-1.3,0.4-2.3,1.3-3.2
		C219.5,12.9,220.6,12.5,221.8,12.5 M230.7,18.8h-5.5c-0.7,0-1.1,0.4-1.1,1.1v4.8h6.7c0.7,0,1.1-0.4,1.1-1.1v-3.6
		C231.8,19.2,231.4,18.8,230.7,18.8"/>
	<polygon points="249.1,12.5 264,12.5 264,43.2 257.3,43.2 257.3,18.8 254.4,18.8 248.6,43.2 241.8,43.2 	"/>
	<path d="M269.5,12.5h15.5c1.2,0,2.3,0.4,3.2,1.3c0.9,0.9,1.3,2,1.3,3.2v26.2h-5.8l-0.6-2h0c-0.2,0.6-0.6,1.1-1.1,1.5
		c-0.6,0.4-1.2,0.6-1.8,0.6h-7.2c-1.2,0-2.3-0.4-3.2-1.3c-0.9-0.9-1.3-2-1.3-3.2v-9.4c0-1.3,0.4-2.4,1.3-3.2
		c0.9-0.9,1.9-1.3,3.2-1.3h10v-4.8c0-0.8-0.4-1.1-1.1-1.1h-12.2V12.5z M282.8,31h-6.7c-0.7,0-1.1,0.4-1.1,1.1v3.6
		c0,0.8,0.4,1.1,1.1,1.1h5.5c0.7,0,1.1-0.4,1.1-1.1V31z"/>
	<path d="M293.9,12.5h5.8l0.6,2h0c0.2-0.6,0.6-1.1,1.1-1.5c0.6-0.4,1.2-0.6,1.8-0.6h7.2c1.2,0,2.3,0.4,3.2,1.3
		c0.9,0.9,1.3,2,1.3,3.2v21.6c0,1.3-0.4,2.4-1.3,3.2c-0.9,0.9-1.9,1.3-3.2,1.3h-7c-0.7,0-1.3-0.2-1.9-0.6c-0.6-0.4-1-1-1.1-1.6v12.5
		h-6.7V12.5z M307.2,18.8h-5.5c-0.7,0-1.1,0.4-1.1,1.1v15.9c0,0.8,0.4,1.1,1.1,1.1h5.5c0.7,0,1.1-0.4,1.1-1.1V19.9
		C308.4,19.2,308,18.8,307.2,18.8"/>
	<path d="M319.4,12.5h6.7v23.3c0,0.8,0.4,1.1,1.1,1.1h5.5c0.7,0,1.1-0.4,1.1-1.1V12.5h6.7v36.4c0,1.3-0.4,2.3-1.3,3.2
		c-0.9,0.9-1.9,1.3-3.1,1.3h-16.6v-6.2h13.3c0.7,0,1.1-0.4,1.1-1.1v-5.1c-0.1,0.7-0.5,1.2-1.1,1.6c-0.6,0.4-1.2,0.6-1.9,0.6h-7
		c-1.2,0-2.3-0.4-3.1-1.3c-0.9-0.9-1.3-2-1.3-3.2V12.5z"/>
	<path d="M349.4,12.5h13.3v6.3h-10c-0.7,0-1.1,0.4-1.1,1.1v15.9c0,0.8,0.4,1.1,1.1,1.1h11.1v6.3h-14.4c-1.2,0-2.3-0.4-3.2-1.3
		c-0.9-0.9-1.3-2-1.3-3.2V17.1c0-1.3,0.4-2.3,1.3-3.2C347.1,12.9,348.1,12.5,349.4,12.5"/>
	<polygon points="368.2,12.5 374.9,12.5 374.9,24.7 376.8,24.7 382.5,12.5 389.9,12.5 382.8,27.8 382.8,27.9 389.9,43.2 382.5,43.2 
		376.8,31 374.9,31 374.9,43.2 368.2,43.2 	"/>
	<path d="M394.3,12.5h15.5c1.2,0,2.3,0.4,3.2,1.3c0.9,0.9,1.3,2,1.3,3.2v26.2h-5.8l-0.6-2h0c-0.2,0.6-0.6,1.1-1.1,1.5
		c-0.6,0.4-1.2,0.6-1.8,0.6h-7.2c-1.2,0-2.3-0.4-3.2-1.3c-0.9-0.9-1.3-2-1.3-3.2v-9.4c0-1.3,0.4-2.4,1.3-3.2
		c0.9-0.9,1.9-1.3,3.2-1.3h10v-4.8c0-0.8-0.4-1.1-1.1-1.1h-12.2V12.5z M407.6,31h-6.7c-0.7,0-1.1,0.4-1.1,1.1v3.6
		c0,0.8,0.4,1.1,1.1,1.1h5.5c0.7,0,1.1-0.4,1.1-1.1V31z"/>
	<path d="M423.1,12.5h16.6v30.7h-6.7V31h-2.5L425,43.2h-7.5l5.5-12.2c-1.2,0-2.3-0.4-3.2-1.3c-0.9-0.9-1.3-2-1.3-3.2v-9.4
		c0-1.2,0.4-2.3,1.3-3.2C420.9,13,421.9,12.5,423.1,12.5 M433.1,18.8h-6.7c-0.7,0-1.1,0.4-1.1,1.1v3.6c0,0.8,0.4,1.1,1.1,1.1h6.7
		V18.8z"/>
	<path d="M13.3,68.9h12.2c1.2,0,2.3,0.4,3.2,1.3c0.9,0.9,1.3,2,1.3,3.2v21.6c0,1.3-0.4,2.4-1.3,3.2c-0.9,0.9-1.9,1.3-3.2,1.3H13.3
		c-1.2,0-2.3-0.4-3.2-1.3c-0.9-0.9-1.3-2-1.3-3.2V73.5c0-1.3,0.4-2.3,1.3-3.2C11,69.4,12.1,68.9,13.3,68.9 M22.2,75.2h-5.5
		c-0.7,0-1.1,0.4-1.1,1.1v15.9c0,0.8,0.4,1.1,1.1,1.1h5.5c0.7,0,1.1-0.4,1.1-1.1V76.3C23.3,75.6,22.9,75.2,22.2,75.2"/>
	<polygon points="34.4,68.9 41,68.9 41,81.1 49.9,81.1 49.9,68.9 56.6,68.9 56.6,99.6 49.9,99.6 49.9,87.4 41,87.4 41,99.6 
		34.4,99.6 	"/>
	<polygon points="67.2,68.9 82.1,68.9 82.1,99.6 75.4,99.6 75.4,75.2 72.5,75.2 66.7,99.6 59.9,99.6 	"/>
	<path d="M87.6,68.9h15.5c1.2,0,2.3,0.4,3.2,1.3c0.9,0.9,1.3,2,1.3,3.2v26.2h-5.8l-0.6-2h0c-0.2,0.6-0.6,1.1-1.1,1.5
		c-0.6,0.4-1.2,0.6-1.8,0.6h-7.2c-1.2,0-2.3-0.4-3.2-1.3c-0.9-0.9-1.3-2-1.3-3.2v-9.4c0-1.3,0.4-2.4,1.3-3.2
		c0.9-0.9,1.9-1.3,3.2-1.3h10v-4.8c0-0.8-0.4-1.1-1.1-1.1H87.6V68.9z M100.9,87.4h-6.7c-0.7,0-1.1,0.4-1.1,1.1v3.6
		c0,0.8,0.4,1.1,1.1,1.1h5.5c0.7,0,1.1-0.4,1.1-1.1V87.4z"/>
	<path d="M112,68.9h6.7V88l7.5-19.1h8.1v30.7h-6.7v-19l-7.5,19H112V68.9z M116.5,58.7h3.5c0,0.8,0.3,1.5,0.9,2
		c0.6,0.5,1.4,0.8,2.3,0.8c0.9,0,1.6-0.3,2.3-0.8c0.6-0.5,0.9-1.2,0.9-2h3.5c0,1.9-0.7,3.5-2,4.8c-1.3,1.3-2.9,2-4.7,2
		c-1.8,0-3.4-0.7-4.7-2C117.1,62.2,116.5,60.6,116.5,58.7"/>
	<polygon points="138.6,68.9 145.3,68.9 145.3,81.1 154.2,81.1 154.2,68.9 160.8,68.9 160.8,99.6 154.2,99.6 154.2,87.4 145.3,87.4 
		145.3,99.6 138.6,99.6 	"/>
	<polygon points="180.8,68.9 187.4,68.9 187.4,93.3 194.1,93.3 194.1,68.9 200.8,68.9 200.8,93.3 207.4,93.3 207.4,68.9 214.1,68.9 
		214.1,99.6 180.8,99.6 	"/>
	<polygon points="218.5,68.9 225.2,68.9 225.2,81.1 227.1,81.1 232.7,68.9 240.1,68.9 233,84.3 233,84.3 240.1,99.6 232.7,99.6 
		227.1,87.4 225.2,87.4 225.2,99.6 218.5,99.6 	"/>
	<path d="M247.9,68.9h12.2c1.2,0,2.3,0.4,3.2,1.3c0.9,0.9,1.3,2,1.3,3.2v21.6c0,1.3-0.4,2.4-1.3,3.2c-0.9,0.9-1.9,1.3-3.2,1.3h-12.2
		c-1.2,0-2.3-0.4-3.1-1.3c-0.9-0.9-1.3-2-1.3-3.2V73.5c0-1.3,0.4-2.3,1.3-3.2C245.6,69.4,246.6,68.9,247.9,68.9 M256.7,75.2h-5.5
		c-0.7,0-1.1,0.4-1.1,1.1v15.9c0,0.8,0.4,1.1,1.1,1.1h5.5c0.7,0,1.1-0.4,1.1-1.1V76.3C257.9,75.6,257.5,75.2,256.7,75.2"/>
	<polygon points="275.1,68.9 290,68.9 290,99.6 283.4,99.6 283.4,75.2 280.4,75.2 274.7,99.6 267.8,99.6 	"/>
	<path d="M295.6,68.9h15.5c1.2,0,2.3,0.4,3.2,1.3c0.9,0.9,1.3,2,1.3,3.2v26.2h-5.8l-0.6-2h0c-0.2,0.6-0.6,1.1-1.1,1.5
		c-0.6,0.4-1.2,0.6-1.8,0.6h-7.2c-1.2,0-2.3-0.4-3.2-1.3c-0.9-0.9-1.3-2-1.3-3.2v-9.4c0-1.3,0.4-2.4,1.3-3.2
		c0.9-0.9,1.9-1.3,3.2-1.3h10v-4.8c0-0.8-0.4-1.1-1.1-1.1h-12.2V68.9z M308.9,87.4h-6.7c-0.7,0-1.1,0.4-1.1,1.1v3.6
		c0,0.8,0.4,1.1,1.1,1.1h5.5c0.7,0,1.1-0.4,1.1-1.1V87.4z"/>
	<path class="st0" d="M576,6l-5.2-0.2c-3.5-0.1-6.8-0.3-10.2-0.4c-3.8,0.1-7.7,0.1-11.5,0.2c3.4,0.1,6.8,0.1,10,0.2l1.2,0
		c0.4,0,0.7,0.1,1,0.1c0.7,0.1,1.4,0.1,2,0.2c1.3,0.1,2.6,0.2,3.9,0.3c1.3,0.1,2.5,0.2,3.8,0.3c0.6,0.1,1.2,0.1,1.8,0.2l0.9,0.1
		c0,0.1-0.2,0.2-0.3,0.4L573,7.6c-2,1.9-3.8,3.7-5.6,5.4c1.1-1.1,2.3-2.3,3.4-3.4l1.7-1.7l0.4-0.4l0.2-0.2c0,0,0.1-0.1,0.1-0.1
		l-0.1,0L572,7c-3.1-0.2-6.2-0.3-9.2-0.5c-0.8,0-1.5-0.1-2.3-0.1c-0.4,0-0.7-0.1-1.1,0h-1.3c-1.7,0-3.3,0-5,0c-3.2,0-6.4,0-9.3,0
		c-8.1,0-14.7,0.1-18.3,0.2c-40.6,0.7-17.6,1.6-2,2.8c11.2,0.5-4,1.3,13.6,1.8c-12.7,0-19,0-31.8-0.1c-1.5,0.5,39.1-0.2,30.3,0.6
		c-12.2-0.2-25.9,0.1-38.6,0.1c4.4,0.7,44,0.3,42,0.9c-6.9,0.2-35.7-0.9-38.1-0.1c-0.5,0.2,12.2,0.2,18.6,0.2
		c-39.1,0.2-60.6,1-24.9,1.9c-12.4,0-29.9-0.4-43-0.3c0,0,0.1,0,0.1,0c6.5,0.1,17.8,0.2,23.8,0.2c-7.4,0-14.9,0-22.3,0
		c1.2,0.1,2.5,0.2,3.9,0.3c5.5,0.1,11.1,0.2,16.9,0.2c-4.9,0-9.9,0-14.8,0c3.7,0.3,8,0.5,12.6,0.8c17.6,0.5,34.5,1.3,44,1.3
		c9.4,0,18.8,0.1,28.3,0.1l1.1,0.1l0.2,0l0.1,0c0,0-0.1,0.1-0.1,0.1l-0.5,0.4l-0.4,0.3l-0.2,0.1l-0.1,0l-0.2,0.1l-1.4,1.1
		c-3.7,2.8-7.5,5.6-11.4,8.2c-7.7,5.3-15.8,10.1-24.1,14.5C474.2,60,437.6,71,400.4,75.1c-0.1,0.3,3.9,0.2-2.3,1
		c-2.2,0.3-4.4,0.5-6.5,0.7c-2.1,0.2-4.2,0.3-6.3,0.5l0.4,13.8c14.4,0.1,27.6,0.7,43.1,0.5c0.5-0.2,1-0.3,1.4-0.5
		c15.5,0.2,31.7,0.5,48.2,0.7l5.7,0l1.2,0l0,0l0.1,0l0.4,0c0,0.1-0.1,0.2-0.1,0.3l-0.1,0.2l-1.4,1.3c-0.6,0.6-1.3,1.2-1.9,1.8
		c-10.6,9.3-23.2,16.6-36.4,22.7c0.8-0.1,1.2-0.1-1.5,1.1c-1.4,0.6-2.8,1.2-4.4,1.9c-1.5,0.6-3.1,1.2-4.8,1.9
		c-3.3,1.3-6.9,2.5-10.7,3.8c-1.9,0.6-3.8,1.2-5.8,1.8c-1,0.3-2,0.6-3,0.9c-1,0.3-2,0.5-3.1,0.8c-2.1,0.6-4.1,1.1-6.2,1.7
		c-2.1,0.5-4.2,1-6.4,1.5c-1.3,0.3-2.5,0.6-3.8,0.9c-1.3,0.3-2.5,0.6-3.8,0.8c-1.9,0.5-2.4,0.8-2.7,0.9c-2,0.4-3.8,0.8-5.7,1.1
		s-3.7,0.6-5.5,0.9c-1.8,0.3-3.5,0.6-5.2,0.9c-1.7,0.2-3.4,0.5-5,0.7l-4.8,0.7l-2.4,0.4l-2.4,0.3c-3.2,0.4-6.4,0.8-9.7,1.2
		c-3.2,0.4-6.5,0.7-9.8,1c-1.6,0.2-3.3,0.3-4.9,0.5c-1.7,0.1-3.3,0.2-5,0.4c-1.8,0.1-3.5,0.3-5.3,0.4c-11.4,0-23.5,0.1-36.1,0.1v1.3
		v11.4v1.3c15-0.1,30.8-0.6,47-1.8c0.5,0,1-0.1,1.5-0.1c14.8-0.2,29.9-0.4,45.2-0.5c8.1-0.1,16.2-0.2,24.3-0.3l2.3,0l1.4,0
		c1,0,2,0,3-0.1l1.5,0l0.8,0c0.2,0,0.7-0.1,0.4,0.2c-0.4,0.9-0.9,1.7-1.5,2.5c-0.6,0.8-1.2,1.6-1.9,2.3c-0.3,0.4-0.7,0.8-1.1,1.1
		l-1.7,1.6c-1.5,1.3-3,2.7-4.6,3.9l-2.4,1.9c-0.8,0.6-1.6,1.2-2.5,1.8c-1.7,1.2-3.3,2.4-5.1,3.5c-1.7,1.1-3.5,2.2-5.2,3.3
		c-3.6,2-7.2,4.2-11,6c-2.2,1.2-4.5,2.4-6.8,3.4c-2.3,1.1-4.6,2.2-6.9,3.2c-4.7,1.9-9.3,4-14,5.7c-2.4,0.9-4.7,1.8-7.1,2.6
		c-2.4,0.8-4.8,1.6-7.1,2.4c-4.7,1.6-9.5,2.9-14.2,4.3c-28.1,7.9-65,13.7-93.3,16.7c1.1,0.3-2.3,1.1-8,2c-2.8,0.5-6.2,1-9.8,1.5
		c-1.8,0.3-3.6,0.6-5.5,0.8c-1.9,0.2-3.8,0.5-5.6,0.7c-7.5,0.9-14.7,1.8-19.2,2.4c-4.5,0.6-6.2,1.1-2.7,1.3
		c-19,1.2-47.7,1.9-49.1,2.5c-2.2,0.8-7,1.6-17.5,2.5c-2.6,0.2-5.6,0.4-9.1,0.7c-3.4,0.2-7.2,0.3-11.5,0.5c-4.3,0.1-9,0.2-14.3,0.4
		c-2.6,0-5.4,0.1-8.3,0.1c-2.9,0-5.9,0-9.1,0c-19.9,0-50.3-2-57.3-1.9c-11,0,25.7,2,14.6,2.1c36.9,1.6,73.5,2.3,110,1.5
		c4.6,0,9.1-0.3,13.7-0.4c4.6-0.2,9.1-0.3,13.7-0.5c4.6-0.1,9.1-0.4,13.6-0.7l13.6-0.8c4.5-0.3,9.1-0.7,13.6-1l13.6-1.1l13.6-1.4
		l6.8-0.7c2.3-0.2,4.5-0.6,6.8-0.8l13.6-1.7c4.5-0.6,9-1.4,13.6-2l6.8-1c2.3-0.4,4.5-0.8,6.8-1.2c4.5-0.8,9-1.6,13.5-2.5
		c18-3.6,35.9-8,53.6-13.7l3.3-1c1.1-0.4,2.2-0.8,3.3-1.1l6.6-2.3c2.2-0.7,4.4-1.6,6.6-2.5l6.5-2.6c8.6-3.7,17.2-7.8,25.5-12.6
		l6.1-3.8c2-1.3,4-2.7,6-4.1c1.9-1.5,3.9-2.9,5.8-4.5l2.8-2.4c0.5-0.4,0.9-0.8,1.4-1.2l1.9-1.8c1.7-1.6,3.2-3.2,4.6-4.9l2.1-2.5
		c0.3-0.4,0.7-0.8,1-1.2l0.8-1.2c2.4-3.3,3.7-6.3,5.1-9.3l1.1-2.3l0.6-1.2c0.5-0.6-0.2-0.5-0.6-0.6l-4.6-1.1l-4.6-1.1l-0.6-0.1
		L424,144c-0.1,0-0.3,0-0.4,0h-1.7l-3.4,0c-1.4,0-3,0-4.8,0c6.9-1.9,13.7-3.9,20.5-6.4c16.1-5.7,31.7-13,45.6-22.5
		c3.5-2.4,6.8-4.9,10.1-7.6c1.6-1.4,3.2-2.7,4.7-4.2l1.2-1.2c0.6-0.6,1.2-1.3,1.9-1.9l1.8-2c0.6-0.7,1.3-1.3,1.8-2
		c1.1-1.3,2.2-2.7,3.2-4l1.3-2c0.4-0.6,0.9-1.3,1.2-1.9c1.4-2.5,2.7-4.9,4-7.4l0.5-1l0.3-0.5l0.1-0.3c0,0,0.1-0.1,0-0.1l-0.1,0
		l-2-0.3c-1.3-0.2-2.6-0.4-3.9-0.7c-1.3-0.2-2.6-0.4-3.9-0.7l-1-0.2c-0.2,0-0.3-0.1-0.5-0.1h-0.7h-2.6c-13,0-25.5,0-37.3,0
		c5-1.6,10-3.3,14.8-5.1c12.2-4.5,23.9-9.8,34.6-15.4c10.7-5.7,20.4-11.7,28.9-17.6c3.9-2.7,7.7-5.6,11.4-8.6l2.9-2.4
		c1.6-1.2,3.1-2.6,4.6-3.8l2.2-1.9l2.1-1.9l2.1-1.9l1.9-1.9c1.3-1.3,2.5-2.5,3.6-3.7l3.5-3.6l1.7-1.8l0.9-0.9l0.4-0.5l0.2-0.2
		C576,6.1,576.2,6,576,6"/>
	<path d="M8.4,125.6H25c1.3,0,2.3,0.4,3.2,1.3c0.9,0.9,1.3,1.9,1.3,3.2v7.3c0,0.9-0.3,1.6-0.9,2.2c-0.6,0.6-1.4,1-2.4,1.1v0
		c1,0.1,1.8,0.5,2.5,1.1c0.7,0.6,1.1,1.4,1.1,2.2v7.3c0,1.3-0.4,2.3-1.3,3.2c-0.9,0.9-1.9,1.3-3.2,1.3H8.4V125.6z M21.6,131.8h-6.5
		v5.8h6.5c0.7,0,1.1-0.4,1.1-1.1V133C22.8,132.2,22.4,131.8,21.6,131.8 M21.9,143.9h-6.7v5.8h6.7c0.7,0,1.1-0.4,1.1-1.1V145
		C23,144.3,22.7,143.9,21.9,143.9"/>
	<path d="M35.4,125.6h15.7c1.3,0,2.3,0.4,3.2,1.3c0.9,0.9,1.3,1.9,1.3,3.2v25.8h-5.8l-0.6-2h0c-0.2,0.6-0.6,1-1.1,1.4
		c-0.6,0.4-1.2,0.6-1.9,0.6h-7.3c-1.3,0-2.3-0.4-3.2-1.3c-0.9-0.9-1.3-1.9-1.3-3.2v-9.3c0-1.3,0.4-2.3,1.3-3.2
		c0.9-0.9,1.9-1.3,3.2-1.3h10.1V133c0-0.7-0.4-1.1-1.1-1.1H35.4V125.6z M48.9,143.9h-6.7c-0.7,0-1.1,0.4-1.1,1.1v3.6
		c0,0.7,0.4,1.1,1.1,1.1h5.6c0.7,0,1.1-0.4,1.1-1.1V143.9z"/>
	<path d="M75.8,115.5h6.7V134c0,0.7,0.4,1.1,1.1,1.1h6.7c0.7,0,1.1-0.4,1.1-1.1v-18.5h6.7v35.9c0,1.3-0.4,2.3-1.3,3.2
		c-0.9,0.9-1.9,1.3-3.2,1.3h-18v-6.2h14.6c0.7,0,1.1-0.4,1.1-1.1v-9.5c-0.1,0.7-0.5,1.2-1.1,1.6c-0.6,0.4-1.3,0.6-2,0.6h-8.2
		c-1.3,0-2.3-0.4-3.2-1.3c-0.9-0.9-1.3-1.9-1.3-3.2V115.5z M80.3,105.4h3.5c0,0.8,0.3,1.4,0.9,2c0.6,0.5,1.4,0.8,2.3,0.8
		c0.9,0,1.7-0.3,2.3-0.8c0.6-0.5,0.9-1.2,0.9-2h3.5c0,1.9-0.7,3.4-2,4.8c-1.3,1.3-2.9,2-4.8,2c-1.9,0-3.4-0.7-4.8-2
		C80.9,108.9,80.3,107.3,80.3,105.4"/>
	<polygon points="102.7,125.6 109.5,125.6 109.5,137.7 111.4,137.7 117.2,125.6 124.6,125.6 117.4,140.8 117.4,140.8 124.6,156 
		117.2,156 111.4,143.9 109.5,143.9 109.5,156 102.7,156 	"/>
	<path d="M128,125.6h5.8l0.6,2h0c0.2-0.6,0.6-1,1.1-1.4c0.6-0.4,1.2-0.6,1.9-0.6h7.3c1.3,0,2.3,0.4,3.2,1.3c0.9,0.9,1.3,1.9,1.3,3.2
		v21.3c0,1.3-0.4,2.3-1.3,3.2c-0.9,0.9-1.9,1.3-3.2,1.3h-7.1c-0.7,0-1.3-0.2-2-0.6c-0.6-0.4-1-1-1.1-1.6v12.3H128V125.6z
		 M141.4,131.8h-5.6c-0.7,0-1.1,0.4-1.1,1.1v15.7c0,0.7,0.4,1.1,1.1,1.1h5.6c0.7,0,1.1-0.4,1.1-1.1V133
		C142.6,132.2,142.2,131.8,141.4,131.8"/>
	<path d="M154.9,125.6h15.7c1.3,0,2.3,0.4,3.2,1.3c0.9,0.9,1.3,1.9,1.3,3.2v25.8h-5.8l-0.6-2h0c-0.2,0.6-0.6,1-1.1,1.4
		s-1.2,0.6-1.9,0.6h-7.3c-1.3,0-2.3-0.4-3.2-1.3c-0.9-0.9-1.3-1.9-1.3-3.2v-9.3c0-1.3,0.4-2.3,1.3-3.2c0.9-0.9,1.9-1.3,3.2-1.3h10.1
		V133c0-0.7-0.4-1.1-1.1-1.1h-12.3V125.6z M168.4,143.9h-6.7c-0.7,0-1.1,0.4-1.1,1.1v3.6c0,0.7,0.4,1.1,1.1,1.1h5.6
		c0.7,0,1.1-0.4,1.1-1.1V143.9z"/>
	<path d="M181.9,115.5h6.7v6.7h-6.7V115.5z M181.9,125.6h6.7V156h-6.7V125.6z"/>
	<polygon points="195.3,125.6 202.1,125.6 202.1,137.7 211,137.7 211,125.6 217.8,125.6 217.8,156 211,156 211,143.9 202.1,143.9 
		202.1,156 195.3,156 	"/>
	<path d="M226.8,125.6h12.3c1.3,0,2.3,0.4,3.2,1.3c0.9,0.9,1.3,1.9,1.3,3.2v9.3c0,1.3-0.4,2.3-1.3,3.2c-0.9,0.9-1.9,1.3-3.2,1.3H229
		v4.7c0,0.7,0.4,1.1,1.1,1.1h13.5v6.2h-16.8c-1.3,0-2.3-0.4-3.2-1.3c-0.9-0.9-1.3-1.9-1.3-3.2v-21.3c0-1.3,0.4-2.3,1.3-3.2
		C224.4,126.1,225.5,125.6,226.8,125.6 M235.7,131.8h-5.6c-0.7,0-1.1,0.4-1.1,1.1v4.7h6.7c0.7,0,1.1-0.4,1.1-1.1V133
		C236.9,132.2,236.5,131.8,235.7,131.8"/>
</g>
</svg>
