<?xml version="1.0" encoding="utf-8"?>
<!-- Generator: Adobe Illustrator 21.1.0, SVG Export Plug-In . SVG Version: 6.00 Build 0)  -->
<svg version="1.1" id="Capa_1" xmlns="http://www.w3.org/2000/svg" xmlns:xlink="http://www.w3.org/1999/xlink" x="0px" y="0px"
	 viewBox="0 0 512 512" style="enable-background:new 0 0 512 512;" xml:space="preserve">
<style type="text/css">
	.st0{fill:#2196F3;}
</style>
<path class="st0" d="M256,0C117.7-2.7,3.2,107,0,245.4C0.4,315.8,31.6,382.5,85.4,428v73.4c0,5.9,4.8,10.7,10.7,10.7
	c2,0,4-0.6,5.7-1.6l59.5-37.1c30.3,11.6,62.5,17.5,94.9,17.4c138.4,2.7,252.8-107,256-245.3C508.9,107,394.4-2.7,256,0z
	 M423.6,188.9l-128,128c-3.9,3.9-10.3,4.2-14.5,0.6l-69.1-59.2l-110.9,60.5c-4.1,2.2-9.3,1.5-12.6-1.8c-4.2-4.2-4.2-10.9,0-15.1
	l128-128c3.9-3.9,10.3-4.2,14.5-0.6l69,59.2L410.9,172c4.7-2.5,10.5-1.3,13.7,3C427.8,179.2,427.4,185.1,423.6,188.9z"/>
</svg>
